<?xml version="1.0" encoding="UTF-8"?><svg id="a" xmlns="http://www.w3.org/2000/svg" viewBox="0 0 227.4 223.43"><defs><style>.b{fill:#c1272d;}</style></defs><path class="b" d="M150.84,.18c-47.2,3.93-59.55,45.15-74.23,47.2C37.77,52.79-17.46,28.4,5.33,106.87c17.7,60.96,23.07,116.45,109.63,116.56,102.75,.13,95.86-58.99,109.63-113.61C238.59,54.28,198.04-3.74,150.85,.19h-.01Zm-5.97,188.15c-46.26-17.93-58.6,17.44-87.37-6.43-28.44-23.6-33.39-63.33-33.39-63.33,0,0-18.48-61.53,60.27-60.35,25.67,1.94,70.73-48.26,104.73-11.75,14.25,19.4,14.35,42.36,14.23,63.04-.35,58.31-12.09,82.94-58.47,78.82h0Z"/></svg>