<?xml version="1.0" encoding="UTF-8"?><svg id="a" xmlns="http://www.w3.org/2000/svg" viewBox="0 0 257.24 489.61"><defs><style>.b{fill:#c1272d;}</style></defs><path class="b" d="M21.38,271.28c-2.23-.18-2.82,3.12-.76,3.99,25.23,10.6,105.96,53.55,135.01,91.79,36.81,48.46,85.06,116.71,96.87,100.8,18.98-25.57-24.32-82.28-37.31-97.19-3-3.44-14.55-16.81-21.13-22.02-44.7-35.39-89.39-70.46-172.69-77.36Z"/><path class="b" d="M255.99,460.7s-70.86-19.05-108.57-16.78c-66.21,3.99-113.9,20.47-146.12,41.27-2.21,1.43-1.44,4.67,1.17,4.41,28.38-2.86,94.49-4.38,123.21-6.57,28.86-2.2,85.52,3.14,109.4-1.99,15.54-3.34,20.91-20.33,20.91-20.33Z"/></svg>