<?xml version="1.0" encoding="UTF-8"?><svg id="a" xmlns="http://www.w3.org/2000/svg" viewBox="0 0 804.52 307.24"><defs><style>.b{fill:#d6e37a;}</style></defs><path class="b" d="M3.09,48.08c52.51,96.27,257.83,80.72,192.77,63.86S40.9,213.42,124.78,280.61c61.45,49.22,327.71,13.25,360.24-37.35s131.33-43.37,159.04,20.48,155.52,38.55,155.52,38.55c0,0,15.57-24.1-8.53-32.53-40.76-14.27-90.36-1.2-101.2-42.17s-66.27-72.29-171.08-65.06-155.42,143.37-281.93,81.93c-126.51-61.45,146.99-34.94,12.53-148.19S29.6,1.05,29.6,1.05c0,0-40.96,20.52-26.51,47.03Z"/></svg>